#N canvas 41 148 689 627 10;
#X obj 21 30 bng 15 250 50 0 ready empty empty 17 7 0 10 -262144 -1
-1;
#X obj 20 352 send InFile;
#X obj 21 430 send OutFile;
#X text 53 25 Click to Start;
#N canvas 615 17 581 921 Test 0;
#X obj 174 74 r InFile;
#X obj 198 499 r OutFile;
#X obj 11 9 r startbang;
#X obj 11 37 delay 10;
#X obj 11 62 s delaybang;
#X obj 174 141 readsf~ 1;
#X msg 251 110 start;
#X obj 251 83 r delaybang;
#X msg 250 580 start;
#X obj 250 553 r delaybang;
#N canvas 237 216 902 692 pulsedetector 0;
#X obj -230 11 inlet~;
#N canvas 869 33 305 532 detector 0;
#X obj 102 -149 block~ 64 1 0.0625;
#X obj -9 -142 inlet~;
#X obj -3 190 outlet~;
#X obj -4 104 log~;
#X obj -8 -44 hilbert~;
#X obj -7 -17 *~;
#X obj 23 -13 *~;
#X obj -6 14 +~;
#X obj -6 47 sqrt~;
#X obj -5 76 lp10_butt~ 3;
#X obj -9 -111 hp10_butt~ 24;
#X obj -8 -77 lp10_butt~ 44;
#X obj -4 162 *~ 300;
#X obj -3 133 hp2_butt~ 2;
#X connect 1 0 10 0;
#X connect 3 0 13 0;
#X connect 4 0 5 0;
#X connect 4 0 5 1;
#X connect 4 1 6 0;
#X connect 4 1 6 1;
#X connect 5 0 7 0;
#X connect 6 0 7 1;
#X connect 7 0 8 0;
#X connect 8 0 9 0;
#X connect 9 0 3 0;
#X connect 10 0 11 0;
#X connect 11 0 4 0;
#X connect 12 0 2 0;
#X connect 13 0 12 0;
#X restore -231 103 pd detector;
#X obj -232 217 sig~;
#X obj -233 321 outlet~;
#X msg -232 167 1;
#X msg -109 162 -1;
#X obj -32 244 float;
#X obj 43 245 + 1;
#X obj -32 319 outlet;
#X msg -32 173 0;
#X obj -32 135 r startbang;
#X obj -230 44 lp10_butt~ 400;
#X msg 58 181 1;
#X obj 113 137 r stopbang;
#X msg 113 180 0;
#X obj 121 288 Scope~ 435 374 256 3 500 -1 1 0 0 0 0 102 255 51 135
135 135 0;
#X obj 204 177 bng 15 250 50 0 empty empty empty 17 7 0 10 -262144
-1 -1;
#X msg 204 213 bufsize 500;
#X obj -231 75 lop~ 20;
#X obj 204 126 loadbang;
#X obj -232 133 threshold~ 1 10 -1 10;
#X connect 0 0 11 0;
#X connect 1 0 15 0;
#X connect 1 0 20 0;
#X connect 2 0 3 0;
#X connect 4 0 2 0;
#X connect 5 0 2 0;
#X connect 6 0 7 0;
#X connect 6 0 8 0;
#X connect 7 0 6 1;
#X connect 9 0 6 0;
#X connect 10 0 9 0;
#X connect 10 0 12 0;
#X connect 11 0 18 0;
#X connect 12 0 7 1;
#X connect 13 0 14 0;
#X connect 14 0 7 1;
#X connect 16 0 17 0;
#X connect 17 0 15 0;
#X connect 18 0 1 0;
#X connect 19 0 16 0;
#X connect 20 0 4 0;
#X connect 20 0 6 0;
#X connect 20 1 5 0;
#X restore 187 448 pd pulsedetector;
#X obj 225 179 s stopbang;
#X obj 264 613 r stopbang;
#X msg 264 643 stop;
#X obj 288 499 / 2;
#X obj 319 520 s beats;
#N canvas 616 374 538 524 simulator 0;
#X obj 30 28 inlet~;
#X obj 178 29 inlet;
#X obj 363 31 inlet;
#X obj 287 281 dbtorms;
#X obj 363 135 nbx 8 14 -1e+37 1e+37 0 0 empty empty empty 0 -8 0 10
-262144 -1 -1 79.4488 256;
#X obj 30 438 outlet~;
#X obj 31 362 +~;
#X obj 236 29 noise~;
#X obj 236 314 *~;
#X obj 287 141 env~;
#X obj 363 93 + 100;
#X obj 236 114 lp6_butt~ 400;
#X obj 287 199 -;
#X obj 287 226 * -1;
#X obj 31 404 *~;
#X obj 83 30 inlet;
#X obj 83 58 + 100;
#X obj 83 87 dbtorms;
#X obj 287 254 + 100;
#X obj 287 172 + 0;
#X obj 152 426 env~;
#X obj 274 474 nbx 8 14 -1e+37 1e+37 0 0 empty empty empty 0 -8 0 10
-262144 -1 -1 62.0176 256;
#X obj 31 216 hip~;
#X obj 235 73 hip~;
#X connect 0 0 22 0;
#X connect 1 0 22 1;
#X connect 1 0 23 1;
#X connect 2 0 10 0;
#X connect 3 0 8 1;
#X connect 6 0 14 0;
#X connect 7 0 23 0;
#X connect 8 0 6 1;
#X connect 9 0 19 0;
#X connect 10 0 4 0;
#X connect 10 0 12 1;
#X connect 11 0 9 0;
#X connect 11 0 8 0;
#X connect 12 0 13 0;
#X connect 13 0 18 0;
#X connect 14 0 5 0;
#X connect 14 0 20 0;
#X connect 15 0 16 0;
#X connect 16 0 17 0;
#X connect 17 0 14 1;
#X connect 18 0 3 0;
#X connect 19 0 12 0;
#X connect 20 0 21 0;
#X connect 22 0 6 0;
#X connect 23 0 11 0;
#X restore 175 349 pd simulator;
#X obj 221 276 r lowcutoff;
#X obj 244 304 r noiselevel;
#X obj 122 434 dac~;
#X obj 198 243 r micattenuation;
#X obj 402 474 s running;
#X msg 402 391 1;
#X msg 439 438 0;
#X obj 402 353 r startbang;
#X obj 439 404 r stopbang;
#X obj 173 705 writesf~ 2;
#X connect 0 0 5 0;
#X connect 1 0 26 0;
#X connect 2 0 3 0;
#X connect 3 0 4 0;
#X connect 5 0 16 0;
#X connect 5 1 11 0;
#X connect 6 0 5 0;
#X connect 7 0 6 0;
#X connect 8 0 26 0;
#X connect 9 0 8 0;
#X connect 10 0 26 1;
#X connect 10 1 14 0;
#X connect 12 0 13 0;
#X connect 13 0 26 0;
#X connect 14 0 15 0;
#X connect 16 0 10 0;
#X connect 16 0 19 0;
#X connect 16 0 19 1;
#X connect 16 0 26 0;
#X connect 17 0 16 2;
#X connect 18 0 16 3;
#X connect 20 0 16 1;
#X connect 22 0 21 0;
#X connect 23 0 21 0;
#X connect 24 0 22 0;
#X connect 25 0 23 0;
#X restore 496 228 pd Test;
#X obj 20 487 delay 10;
#X obj 20 512 s startbang;
#X floatatom 299 51 5 0 0 0 - beats -;
#X text 297 27 Counted Beats;
#X obj 20 301 r ready;
#X obj 21 380 r ready;
#X obj 20 459 r ready;
#X obj 23 82 hsl 128 15 1 400 0 1 lowcutoff empty empty -2 -8 0 10
-262144 -1 -1 6400 1;
#X obj 21 102 nbx 5 14 -1e+37 1e+37 0 0 empty lowcutoff empty 0 -8
0 10 -262144 -1 -1 202.071 256;
#X text 18 59 Microphone Hipass Cutoff;
#X obj 22 227 hsl 128 15 -90 0 0 1 noiselevel empty empty -2 -8 0 10
-262144 -1 -1 9800 1;
#X obj 19 249 nbx 5 14 -1e+37 1e+37 0 0 empty noiselevel empty 0 -8
0 10 -262144 -1 -1 -20.5512 256;
#X obj 21 153 hsl 128 15 0 -80 0 1 micattenuation empty empty -2 -8
0 10 -262144 -1 -1 3200 1;
#X text 17 129 Microphone Attenuation;
#X obj 18 176 nbx 5 14 -1e+37 1e+37 0 0 empty micattenuation empty
0 -8 0 10 -262144 -1 -1 -20.1575 256;
#X text 16 202 Noise Level relative to signal;
#X obj 189 28 tgl 15 0 empty running empty 17 7 0 10 -262144 -1 -1
0 1;
#X text 212 23 Running;
#X text 440 324 Input Filenname;
#X text 438 403 Output Filenname;
#X msg 20 327 open CleanHeartbeat.wav;
#X msg 21 403 open -bytes 4 Output.wav;
#X connect 5 0 6 0;
#X connect 9 0 25 0;
#X connect 10 0 26 0;
#X connect 11 0 5 0;
#X connect 25 0 1 0;
#X connect 26 0 2 0;
